<?xml version="1.0" standalone="no"?>
<!DOCTYPE svg PUBLIC "-//W3C//DTD SVG 20010904//EN"
 "http://www.w3.org/TR/2001/REC-SVG-20010904/DTD/svg10.dtd">
<svg version="1.0" xmlns="http://www.w3.org/2000/svg"
 width="512.000000pt" height="512.000000pt" viewBox="0 0 512.000000 512.000000"
 preserveAspectRatio="xMidYMid meet">
<metadata>
Created by potrace 1.11, written by Peter Selinger 2001-2013
</metadata>
<g transform="translate(0.000000,512.000000) scale(0.100000,-0.100000)"
fill="#000000" stroke="none">
<path d="M1688 4065 c-2 -1 -28 -6 -59 -9 -78 -9 -84 -11 -172 -40 -187 -63
-348 -177 -466 -330 -106 -140 -162 -270 -196 -461 -6 -36 -7 -241 -1 -270 25
-119 38 -169 47 -180 5 -5 9 -16 9 -25 0 -69 248 -432 440 -644 114 -125 326
-332 460 -446 14 -12 39 -34 55 -48 116 -104 472 -375 663 -505 82 -56 84 -56
110 -40 662 408 1194 871 1483 1293 133 194 218 358 253 490 32 124 40 330 14
425 -5 22 -12 48 -13 57 -2 9 -15 50 -30 90 -119 330 -435 588 -780 636 -75
10 -253 6 -320 -8 -242 -48 -458 -177 -592 -353 l-22 -28 -93 93 c-153 154
-331 254 -505 284 -15 3 -36 7 -46 10 -20 6 -233 14 -239 9z"/>
</g>
</svg>
